<svg width="38" height="24" viewBox="0 0 38 24" fill="none" xmlns="http://www.w3.org/2000/svg">
<rect x="0.5" y="0.5" width="37" height="23" rx="2.5" fill="white" stroke="#EEEEEE"/>
<path d="M16.0783 10.245C15.5658 10.3609 15.1145 10.6619 14.8117 11.0898C14.5088 11.5177 14.3759 12.0421 14.4386 12.5619C14.5014 13.0816 14.7552 13.5598 15.1512 13.904C15.5472 14.2483 16.0572 14.4342 16.5828 14.4258H16.7129C16.7464 14.4284 16.78 14.4229 16.8109 14.4098H16.876C16.9964 14.3963 17.1158 14.375 17.2334 14.3458H17.2503C17.3617 14.3181 17.4706 14.2809 17.5756 14.2346C17.7426 14.1722 17.8968 14.0803 18.0311 13.9634C18.1739 13.8661 18.273 13.7172 18.3074 13.5482C18.31 13.4314 18.2698 13.3176 18.1941 13.2282C18.1507 13.1814 18.0977 13.1443 18.0387 13.1196C17.9796 13.0949 17.916 13.0831 17.852 13.085H17.8198C17.7138 13.095 17.6124 13.1334 17.5266 13.1962L17.4616 13.2442L17.3644 13.3082C17.2339 13.4035 17.0838 13.4687 16.925 13.4994C16.925 13.4994 16.7459 13.5314 16.7129 13.5314H16.6326C16.3797 13.5403 16.1302 13.4716 15.9177 13.3347C15.7053 13.1978 15.5401 12.9992 15.4446 12.7658H18.2431L18.4223 12.7498C18.4888 12.7476 18.5541 12.7306 18.6132 12.7002C18.6724 12.6697 18.7241 12.6266 18.7645 12.5738C18.9107 12.3826 18.8777 12.0938 18.7645 11.7282C18.5998 11.1807 18.2267 10.7189 17.7247 10.4418C17.2228 10.1646 16.6319 10.094 16.0783 10.245V10.245ZM17.852 11.9538L15.4277 11.937C15.5271 11.6232 15.7473 11.3614 16.0401 11.2089C16.333 11.0564 16.6745 11.0257 16.99 11.1234C17.196 11.1706 17.3851 11.2729 17.537 11.4192C17.6889 11.5655 17.7978 11.7504 17.852 11.9538V11.9538Z" fill="#2E6C68"/>
<path d="M26.818 9.65466C26.6366 9.44144 26.4091 9.27188 26.1526 9.15868C25.8961 9.04549 25.6172 8.9916 25.3367 9.00106C25.0845 8.99552 24.8338 9.04231 24.6007 9.13848C24.3676 9.23464 24.1571 9.37806 23.9827 9.55962C23.8082 9.74118 23.6736 9.95691 23.5874 10.1931C23.5012 10.4293 23.4653 10.6807 23.482 10.9315V13.7563C23.4768 13.8685 23.5048 13.9797 23.5623 14.0763C23.591 14.1332 23.6323 14.183 23.6831 14.2218C23.7339 14.2606 23.7928 14.2874 23.8555 14.3003C23.8876 14.3003 23.9206 14.3163 23.9527 14.3163C24.0457 14.3169 24.1366 14.289 24.213 14.2363C24.2888 14.1797 24.3484 14.1042 24.3856 14.0174C24.4229 13.9306 24.4365 13.8356 24.425 13.7419V12.5755H25.3046C25.7404 12.6149 26.1752 12.4911 26.5242 12.2282C26.8732 11.9653 27.1111 11.5822 27.1915 11.1539C27.2444 10.892 27.2384 10.6217 27.1738 10.3625C27.1092 10.1032 26.9877 9.86148 26.818 9.65466V9.65466ZM26.2806 10.8043C26.2799 10.9297 26.253 11.0535 26.2016 11.168C26.1502 11.2825 26.0754 11.385 25.982 11.4691C25.8886 11.5532 25.7786 11.617 25.6591 11.6563C25.5395 11.6957 25.4131 11.7099 25.2877 11.6979L24.4419 11.6811V10.8675C24.4218 10.736 24.4319 10.6016 24.4714 10.4746C24.5109 10.3475 24.5788 10.231 24.67 10.1339C24.7585 10.0444 24.8655 9.97516 24.9835 9.93109C25.1016 9.88701 25.2279 9.86912 25.3536 9.87866C25.4765 9.87534 25.5987 9.89703 25.7128 9.9424C25.8269 9.98777 25.9306 10.0559 26.0174 10.1425C26.1041 10.2292 26.1722 10.3326 26.2175 10.4464C26.2628 10.5601 26.2842 10.6819 26.2806 10.8043V10.8043Z" fill="#2E6C68"/>
<path d="M9.97669 11.4577C9.96794 11.4023 9.95144 11.3485 9.92769 11.2977L9.91162 11.2497C9.80242 10.9244 9.59186 10.6424 9.31058 10.4445C9.0293 10.2467 8.69196 10.1434 8.34767 10.1497C8.22785 10.1509 8.10833 10.1616 7.99021 10.1817C7.59284 10.256 7.23939 10.4797 7.00311 10.8065C6.76684 11.1332 6.66584 11.538 6.72105 11.9369V13.7553C6.71503 13.8555 6.73758 13.9553 6.78612 14.0433L6.80218 14.0745C6.83087 14.1315 6.87216 14.1812 6.92294 14.22C6.97373 14.2588 7.03268 14.2857 7.09537 14.2985C7.12751 14.2985 7.16044 14.3145 7.19257 14.3145C7.28551 14.315 7.37637 14.2871 7.45283 14.2345C7.52744 14.1768 7.58606 14.1011 7.62317 14.0146C7.66027 13.9281 7.67463 13.8336 7.66489 13.7401L7.64802 12.6865H7.94603C8.40148 12.6865 8.46655 12.3993 8.48342 12.2721C8.48826 12.1548 8.44739 12.0401 8.36935 11.9521C8.31244 11.9005 8.24551 11.8611 8.17269 11.8364C8.09988 11.8116 8.02273 11.802 7.94603 11.8081H7.65284C7.68578 11.2977 7.89382 11.1377 8.20629 11.0745C8.32596 11.0455 8.45128 11.0495 8.56886 11.086C8.68643 11.1225 8.79183 11.1902 8.8738 11.2817C8.93929 11.3503 8.98916 11.4321 9.02 11.5217C9.03872 11.7084 9.09999 11.8885 9.19913 12.0481L9.21519 12.0801C9.28584 12.157 9.38023 12.2081 9.48339 12.2255C9.58655 12.2429 9.6926 12.2255 9.78471 12.1761C10.1068 12.0161 10.0096 11.6177 9.97669 11.4577Z" fill="#2E6C68"/>
<path d="M4.3795 9.04492C4.11573 8.99772 3.84563 8.99772 3.58186 9.04492C3.13214 9.11706 2.72403 9.3494 2.4334 9.69873C2.14278 10.0481 1.98942 10.4906 2.00183 10.9441V13.7681C1.99311 13.8787 2.01564 13.9896 2.0669 14.0881L2.08377 14.1041C2.14853 14.2034 2.24637 14.2768 2.36009 14.3113C2.39625 14.3258 2.43539 14.3312 2.47415 14.3273C2.56664 14.325 2.6567 14.2973 2.73441 14.2473C2.81223 14.1915 2.87412 14.1166 2.91398 14.0297C2.95384 13.9429 2.9703 13.8472 2.96174 13.7521V12.7313H5.04621V13.7521C5.04445 13.8639 5.07215 13.9743 5.12654 14.0721C5.155 14.129 5.19613 14.1787 5.2468 14.2174C5.29747 14.2561 5.35634 14.2827 5.41892 14.2953C5.45186 14.2953 5.48399 14.3113 5.51692 14.3113C5.60948 14.3094 5.69963 14.2817 5.77718 14.2313C5.85165 14.1734 5.91011 14.0975 5.94707 14.0109C5.98402 13.9243 5.99826 13.8297 5.98844 13.7361V10.9281C5.98504 10.476 5.82195 10.0395 5.52776 9.69518C5.23357 9.35084 4.82706 9.12063 4.3795 9.04492V9.04492ZM5.01408 10.9441V11.8537H2.94728V10.9441C2.93281 10.7697 2.96784 10.5947 3.04836 10.4391C3.12889 10.2835 3.25167 10.1536 3.40273 10.0641C3.63882 9.91246 3.92374 9.85531 4.20037 9.90412C4.32469 9.92214 4.44226 9.97173 4.54176 10.0481L4.55863 10.0641C4.70962 10.1537 4.83235 10.2836 4.91287 10.4392C4.99338 10.5947 5.02845 10.7697 5.01408 10.9441Z" fill="#2E6C68"/>
<path d="M13.5889 12.3834C13.4693 12.3541 13.3432 12.3653 13.2307 12.4154C13.1563 12.4558 13.0926 12.513 13.0446 12.5825C12.9966 12.652 12.9657 12.7318 12.9543 12.8154L12.9214 12.9754V13.0074C12.9042 13.0942 12.8698 13.1768 12.8203 13.2504C12.7709 13.3239 12.7072 13.387 12.6331 13.436C12.5591 13.4849 12.476 13.5187 12.3887 13.5355C12.3014 13.5523 12.2116 13.5517 12.1246 13.5338C11.8643 13.5018 11.5551 13.3586 11.539 12.7042H11.78C12.2684 12.7042 12.3495 12.433 12.3495 12.2578C12.3498 12.1531 12.3122 12.0519 12.2436 11.9727C12.1749 11.8935 12.0799 11.8416 11.976 11.8266C11.906 11.8139 11.835 11.8085 11.7639 11.8106H11.5526V10.6906C11.5567 10.5925 11.54 10.4946 11.5036 10.4034L11.4876 10.3714C11.4588 10.3145 11.4175 10.2649 11.3667 10.2262C11.316 10.1875 11.257 10.1609 11.1944 10.1482C11.1336 10.1338 11.0705 10.1321 11.009 10.1431C10.9475 10.1542 10.8889 10.1776 10.8369 10.2122C10.7622 10.2697 10.7035 10.3454 10.6664 10.4319C10.6293 10.5184 10.615 10.613 10.6249 10.7066V12.5578C10.6249 13.6586 11.0643 14.249 11.9904 14.3922C12.0979 14.4107 12.2067 14.4214 12.3157 14.4242C12.6693 14.4315 13.0152 14.3208 13.2983 14.1097C13.5814 13.8986 13.7855 13.5993 13.8781 13.2594C13.8942 13.2114 13.8942 13.1642 13.9102 13.0994V13.0834C13.9529 12.9283 13.9354 12.763 13.8612 12.6202C13.837 12.5626 13.7999 12.5113 13.7527 12.4703C13.7055 12.4293 13.6494 12.3995 13.5889 12.3834V12.3834Z" fill="#2E6C68"/>
<path d="M22.7333 11.4579C22.7172 11.4099 22.7172 11.3779 22.7011 11.3307L22.6682 11.2507C22.5593 10.9257 22.3491 10.6437 22.0683 10.4458C21.7875 10.2478 21.4506 10.1442 21.1066 10.1499C20.9866 10.1519 20.8669 10.1626 20.7484 10.1819C20.351 10.2562 19.9976 10.4799 19.7613 10.8066C19.525 11.1334 19.424 11.5382 19.4792 11.9371V13.7555C19.4741 13.8677 19.502 13.9789 19.5596 14.0755C19.5882 14.1325 19.6295 14.1822 19.6803 14.221C19.7311 14.2598 19.7901 14.2866 19.8527 14.2995C19.8849 14.2995 19.9178 14.3155 19.9499 14.3155C20.0429 14.3161 20.1338 14.2882 20.2102 14.2355C20.2833 14.1772 20.3398 14.1009 20.3742 14.0142C20.4086 13.9275 20.4196 13.8334 20.4062 13.7411V11.9539C20.4062 11.3139 20.6335 11.1539 20.9588 11.0739C21.0786 11.0487 21.2029 11.0545 21.3197 11.0908C21.4366 11.1271 21.5422 11.1926 21.6264 11.2811C21.6911 11.3503 21.7409 11.4319 21.7726 11.5211C21.7913 11.7078 21.8525 11.8879 21.9517 12.0475L21.9677 12.0795C22.0384 12.1563 22.1328 12.2075 22.2359 12.2249C22.3391 12.2423 22.4452 12.2249 22.5373 12.1755C22.8473 12.0163 22.7662 11.6179 22.7333 11.4579Z" fill="#2E6C68"/>
<path d="M35.8996 10.8201C35.9006 10.7494 35.8894 10.6791 35.8667 10.6121C35.8667 10.6121 35.7614 10.3121 35.5253 10.2921C35.2891 10.2721 35.265 10.2921 35.167 10.3561C35.0906 10.4121 35.0307 10.4876 34.9935 10.5745C34.9564 10.6615 34.9433 10.7568 34.9558 10.8505V12.6537C34.9649 12.7851 34.9465 12.917 34.9017 13.041C34.8569 13.1649 34.7867 13.2782 34.6955 13.3737C34.617 13.4379 34.5253 13.484 34.4268 13.5088C34.3284 13.5335 34.2257 13.5363 34.126 13.5169C34.0325 13.5051 33.9424 13.475 33.8606 13.4283C33.7789 13.3816 33.7072 13.3193 33.6497 13.245C33.5923 13.1706 33.5501 13.0857 33.5257 12.9951C33.5013 12.9045 33.4951 12.8099 33.5075 12.7169V10.8201C33.5131 10.7097 33.4907 10.5997 33.4424 10.5001C33.4137 10.4431 33.3724 10.3934 33.3217 10.3546C33.2709 10.3158 33.2119 10.2889 33.1492 10.2761C33.0884 10.262 33.0253 10.2604 32.9639 10.2714C32.9024 10.2824 32.8438 10.3058 32.7918 10.3401C32.716 10.3969 32.6565 10.4726 32.6193 10.5595C32.582 10.6464 32.5684 10.7415 32.5797 10.8353V12.7017C32.5501 13.0475 32.6384 13.3931 32.8303 13.6827C33.0223 13.9723 33.3067 14.189 33.6376 14.2977C33.8527 14.3697 34.0801 14.3983 34.3064 14.3818C34.5327 14.3653 34.7535 14.3041 34.9558 14.2017C34.9718 14.5689 34.8754 15.0473 34.4674 15.1273C34.288 15.1696 34.0997 15.1528 33.9308 15.0793C33.8428 15.0383 33.7649 14.9785 33.7027 14.9041L33.6055 14.7761L33.5404 14.7121C33.5103 14.6678 33.4715 14.63 33.4264 14.6009L33.3774 14.5689C33.3139 14.5309 33.2418 14.5095 33.1678 14.5067C33.0938 14.5039 33.0202 14.5198 32.954 14.5529C32.8849 14.5811 32.8244 14.6269 32.7788 14.6857C32.7331 14.7446 32.7038 14.8144 32.6938 14.8881C32.6795 15.0725 32.7371 15.2552 32.8544 15.3985L32.8705 15.4145C32.9608 15.5327 33.0646 15.6401 33.1798 15.7345C33.4655 15.9487 33.815 16.0614 34.1726 16.0545C34.342 16.047 34.5104 16.0256 34.6762 15.9905C35.8643 15.6233 35.8643 14.2353 35.8643 13.7721L35.8996 10.8201Z" fill="#2E6C68"/>
<path d="M31.8127 11.6178C31.6566 11.0985 31.2998 10.6623 30.8207 10.405C30.2909 10.1244 29.672 10.0613 29.0961 10.229C28.7226 10.334 28.3847 10.5379 28.1182 10.8189C27.8517 11.1 27.6667 11.4476 27.5827 11.825C27.4554 12.3566 27.5444 12.9168 27.8303 13.3833C28.1163 13.8497 28.576 14.1846 29.109 14.3146C29.3057 14.3644 29.5076 14.3912 29.7106 14.3946C30.0121 14.3934 30.3106 14.3339 30.5894 14.2194C30.7266 14.158 30.8573 14.0832 30.9798 13.9962C30.984 14.0201 30.9955 14.0422 31.0127 14.0594L31.0288 14.0914C31.0939 14.1905 31.1916 14.264 31.3051 14.2994C31.366 14.3136 31.4292 14.3152 31.4908 14.3042C31.5524 14.2932 31.6111 14.2698 31.6633 14.2354C31.739 14.1787 31.7983 14.1032 31.8354 14.0164C31.8725 13.9296 31.886 13.8346 31.8746 13.741V12.1442C31.8701 11.9672 31.8494 11.791 31.8127 11.6178V11.6178ZM30.983 12.2402C31.0059 12.5315 30.9202 12.821 30.7424 13.0534C30.5646 13.2858 30.3071 13.4449 30.0191 13.5002C29.7081 13.5828 29.377 13.5404 29.0971 13.3823C28.8172 13.2241 28.6109 12.9628 28.5226 12.6546V12.6226C28.4904 12.5413 28.4738 12.4548 28.4736 12.3674C28.4539 12.089 28.528 11.812 28.684 11.5801C28.8401 11.3483 29.0694 11.1749 29.3355 11.0874C29.523 11.0289 29.7214 11.013 29.9159 11.0406C30.1105 11.0683 30.2964 11.139 30.46 11.2474C30.6182 11.3615 30.7477 11.5105 30.8384 11.6827C30.9291 11.855 30.9786 12.0458 30.983 12.2402Z" fill="#2E6C68"/>
</svg>